<?xml version="1.0" standalone="no"?><!DOCTYPE svg PUBLIC "-//W3C//DTD SVG 1.1//EN" "http://www.w3.org/Graphics/SVG/1.1/DTD/svg11.dtd"><svg t="1571016956799" class="icon" viewBox="0 0 1024 1024" version="1.1" xmlns="http://www.w3.org/2000/svg" p-id="1575" width="40" height="40" xmlns:xlink="http://www.w3.org/1999/xlink"><defs><style type="text/css"></style></defs><path d="M915.754667 216.362667c16.170667 6.528 26.794667 22.186667 26.794666 39.637333v170.666667a42.666667 42.666667 0 0 1-42.666666 42.666666h-85.333334v213.333334a42.666667 42.666667 0 0 1-42.666666 42.666666c-23.509333 0-42.666667 19.114667-42.666667 42.666667v85.333333a42.666667 42.666667 0 0 1-42.666667 42.666667h-341.333333a42.666667 42.666667 0 0 1-42.666667-42.666667v-85.333333c0-23.552-19.2-42.666667-42.666666-42.666667a42.666667 42.666667 0 0 1-42.666667-42.666666v-213.333334h-85.333333a42.666667 42.666667 0 0 1-42.666667-42.666666V256c0-17.450667 10.624-33.109333 26.794667-39.637333l213.333333-85.333334A42.794667 42.794667 0 0 1 387.84 170.666667c0 47.061333 38.272 85.333333 85.333333 85.333333h85.333334c47.061333 0 85.333333-38.272 85.333333-85.333333a42.709333 42.709333 0 0 1 58.538667-39.637334l213.333333 85.333334zM857.173333 384V284.885333l-138.453333-55.381333A170.965333 170.965333 0 0 1 558.506667 341.333333h-85.333334a170.965333 170.965333 0 0 1-160.213333-111.829333L174.506667 284.885333V384h85.333333a42.666667 42.666667 0 0 1 42.666667 42.666667v220.629333c49.664 17.621333 85.333333 65.066667 85.333333 120.704v42.666667h256v-42.666667c0-55.637333 35.669333-103.082667 85.333333-120.704V426.666667a42.666667 42.666667 0 0 1 42.666667-42.666667h85.333333z m-341.333333 85.333333a42.666667 42.666667 0 1 1 0-85.333333 42.666667 42.666667 0 0 1 0 85.333333z m128-42.666666a42.666667 42.666667 0 1 1 0 85.333333 42.666667 42.666667 0 0 1 0-85.333333z m-213.333333 42.666666a42.666667 42.666667 0 1 1-85.333334 0 42.666667 42.666667 0 0 1 85.333334 0z m85.333333 42.666667c70.4 0 128 57.6 128 128 0 23.466667-19.2 42.666667-42.666667 42.666667h-170.666666c-23.466667 0-42.666667-19.2-42.666667-42.666667 0-70.4 57.6-128 128-128z" fill="#8683df" p-id="1576"></path></svg>